<?xml version="1.0" encoding="iso-8859-1"?>
<!-- Uploaded to: SVG Repo, www.svgrepo.com, Generator: SVG Repo Mixer Tools -->
<!DOCTYPE svg PUBLIC "-//W3C//DTD SVG 1.1//EN" "http://www.w3.org/Graphics/SVG/1.1/DTD/svg11.dtd">
<svg fill="#ffffff" height="800px" width="800px" version="1.1" id="Capa_1" xmlns="http://www.w3.org/2000/svg" xmlns:xlink="http://www.w3.org/1999/xlink" 
	 viewBox="0 0 297 297" xml:space="preserve">
<path d="M288.061,158.41c0.678-2.98,1.053-6.105,1.053-9.391c0-25.018-10.57-46.279-30.567-61.486
	c-7.69-5.848-15.395-9.713-21.094-12.098c1.464-2.121,2.126-4.721,1.79-7.32c-0.419-3.229-2.308-6.084-5.116-7.73
	c-1.558-0.912-38.729-22.358-88.602-22.358c-29.524,0-57.332,7.521-82.648,22.358c-2.811,1.645-4.699,4.502-5.118,7.73
	c-0.336,2.6,0.326,5.199,1.791,7.32c-5.7,2.385-13.405,6.25-21.096,12.098C18.456,102.74,7.885,124.002,7.885,149.02
	c0,3.285,0.376,6.41,1.053,9.391c-1.023,2.059-19.604,40.596,0.024,79.861c7.347,14.693,19.381,20.701,29.83,20.701
	c2.059,0,4.056-0.234,5.942-0.68c11.332-2.676,18.945-12.555,18.945-24.586c0-12.023,2.025-15.338,11.12-24.57
	c6.727,1.924,11.398,2.846,12.148,2.988c0.695,0.133,1.396,0.201,2.092,0.201c2.344-0.002,4.627-0.76,6.442-2.307
	c2.341-1.994,3.659-4.791,3.585-7.861c0.114-3.162,1.139-4.988,2.417-6.057c6.022,4.006,24.786,15.041,48.763,15.041
	c16.229,0,31.534-4.98,45.544-14.797c1.147,1.098,2.037,2.881,2.143,5.814c-0.073,3.07,1.245,5.865,3.585,7.859
	c1.817,1.547,4.1,2.307,6.442,2.305c0.696,0,1.396-0.066,2.092-0.199c0.75-0.143,5.422-1.064,12.148-2.988
	c9.093,9.232,11.118,12.547,11.118,24.57c0,12.031,7.613,21.91,18.945,24.586c1.888,0.445,3.885,0.68,5.942,0.68
	c10.45,0,22.484-6.008,29.83-20.701C307.668,199.006,289.086,160.471,288.061,158.41z M43.271,233.707
	c0,2.629-1.085,4.219-3.225,4.723c-3.64,0.863-9.024-1.676-12.829-9.285c-8.779-17.561-7.392-35.439-4.665-47.402
	c8.82,8.754,20.422,15.273,31.351,19.984C47.128,209.858,43.271,218.285,43.271,233.707z M81.373,189.82
	c-20.021-5.602-53.078-19.324-53.078-40.801c0-42.889,40.808-55.711,45.166-56.955c22.336,31.828,23.558,67.725,22.747,83.836
	C88.785,178.541,84.029,183.955,81.373,189.82z M117.016,180.928c1.52-18.094,1.842-66.926-31.969-108.465
	c18.87-8.889,39.157-13.385,60.478-13.385c28.392,0,52.503,8.049,66.103,13.797c-33.589,41.646-32.777,90.475-31.107,108.348
	c-9.507,5.889-19.666,8.869-30.273,8.869C135.743,190.092,123.468,184.539,117.016,180.928z M201.286,176.07
	c-0.953-15.99-0.076-52.047,22.271-84.002c3.902,1.133,45.148,14.164,45.148,56.951c0,21.637-32.622,35.191-53.066,40.822
	C213.043,184.098,208.439,178.777,201.286,176.07z M269.782,229.145c-3.803,7.607-9.183,10.146-12.829,9.285
	c-2.14-0.504-3.225-2.094-3.225-4.723c0-15.422-3.857-23.85-10.632-31.979c10.929-4.711,22.53-11.232,31.351-19.986
	C277.173,193.705,278.562,211.584,269.782,229.145z"/>
</svg>