<?xml version="1.0" encoding="iso-8859-1"?>
<!-- Uploaded to: SVG Repo, www.svgrepo.com, Generator: SVG Repo Mixer Tools -->
<svg fill="#ffffff" height="800px" width="800px" version="1.1" id="Layer_1" xmlns="http://www.w3.org/2000/svg" xmlns:xlink="http://www.w3.org/1999/xlink" 
	 viewBox="0 0 511.999 511.999" xml:space="preserve">
<g>
	<g>
		<g>
			<path d="M501.331,85.339h-14.862v-4.329c0-5.892-4.776-10.669-10.669-10.669c-5.891,0-10.669,4.776-10.669,10.669v4.329H262.177
				c-5.892,0-10.669,4.776-10.669,10.669v7.02h-88.035v-7.02c0-5.892-4.776-10.669-10.669-10.669h-43.005v-4.329
				c0-5.892-4.777-10.669-10.669-10.669c-5.891,0-10.669,4.776-10.669,10.669v4.329H77.639c-5.892,0-10.669,4.776-10.669,10.669
				v16.622l-11.082,54.858L30.72,213.742c-2.766,5.084-0.975,11.446,4.037,14.339c12.64,7.296,18.41,13.666,17.754,27.18
				c-0.048,0.408-0.079,0.82-0.079,1.241c0,0.004,0.001,0.008,0.001,0.012c-0.803,10.698-5.375,25.739-13.527,48.768L1.624,410.608
				c-2.797,7.906-1.952,15.906,2.32,21.949c4.089,5.785,10.869,9.102,18.606,9.102h104.906c9.318,0,18.766-6.841,21.976-15.911
				l28.15-79.521c0.24-0.531,0.435-1.086,0.588-1.659l6.928-19.574h70.75c43.866,0,65.499-15.04,79.819-55.492l6.161-17.407h70.35
				c5.892,0,10.669-4.776,10.669-10.669v-11.916h67.815c5.892,0,10.669-4.776,10.669-10.669v-36.998
				c5.89-0.001,10.667-4.777,10.667-10.669V96.008C512,90.115,507.223,85.339,501.331,85.339z M218.161,124.365h33.344v36.141
				h-33.344V124.365z M163.477,124.365h33.346v36.141h-33.346V124.365z M88.098,115.809c0.14-0.696,0.21-1.403,0.21-2.112v-7.02
				h53.827v7.02c0,0.028,0.004,0.054,0.004,0.082v46.727H79.069L88.098,115.809z M315.554,262.383
				c-11.198,31.63-25.146,41.273-59.705,41.273h-63.197l18.251-51.561h11.331c-0.107,12.641,4.678,27.36,16.101,38.907
				c2.086,2.109,4.834,3.165,7.584,3.165c2.711,0,5.423-1.026,7.502-3.084c4.19-4.144,4.225-10.898,0.082-15.088
				c-7.403-7.484-9.991-16.901-9.917-23.9h75.605L315.554,262.383z M401.51,218.842v11.915H234.694
				c-0.046,0.001-0.091-0.001-0.135,0h-31.196c-4.519,0-8.55,2.849-10.059,7.109l-33.025,93.299h-33.462
				c-5.891,0-10.669,4.776-10.669,10.669s4.778,10.669,10.669,10.669h25.908l-7.549,21.328h-72.53
				c-5.892,0-10.669,4.776-10.669,10.669s4.776,10.669,10.669,10.669h64.975l-8.304,23.461c-0.216,0.59-1.324,1.527-1.989,1.693
				H22.551c-0.639,0-1.01-0.095-1.185-0.158c-0.064-0.337-0.077-1.16,0.374-2.436l37.281-105.326
				c6.141-17.35,11.134-32.235,13.421-45.231h23.73c5.892,0,10.669-4.776,10.669-10.669c0-5.892-4.776-10.669-10.669-10.669H73.311
				c-1.592-11.712-7.336-21.652-19.156-30.516l18.214-33.474H401.51V218.842z M422.848,208.172v-26.33h57.146v26.33H422.848z
				 M490.662,160.506H272.843v-46.768c0-0.014,0.002-0.027,0.002-0.042v-7.02h217.817V160.506z"/>
			<path d="M95.918,224.51h0.254c5.892,0,10.669-4.776,10.669-10.669s-4.776-10.669-10.669-10.669h-0.254
				c-5.891,0-10.669,4.776-10.669,10.669S90.027,224.51,95.918,224.51z"/>
			<path d="M126.816,224.506h41.051c5.891,0,10.669-4.776,10.669-10.669s-4.776-10.669-10.669-10.669h-41.051
				c-5.891,0-10.669,4.776-10.669,10.669S120.925,224.506,126.816,224.506z"/>
			<path d="M96.172,331.17h-0.254c-5.891,0-10.669,4.776-10.669,10.669s4.778,10.669,10.669,10.669h0.254
				c5.892,0,10.669-4.776,10.669-10.669S102.064,331.17,96.172,331.17z"/>
		</g>
	</g>
</g>
</svg>